<svg width="316" height="161" xmlns="http://www.w3.org/2000/svg" xmlns:xlink="http://www.w3.org/1999/xlink" xml:space="preserve" overflow="hidden"><g><path d="M120.905 311.175 159.246 311.175 159.246 306.957 120.905 306.957 120.905 311.175" fill="#F1471D" transform="matrix(1.00061 0 0 1 -84.2157 -169.123)"/><path d="M123.558 318.451 156.594 318.451 156.594 314.233 123.558 314.233 123.558 318.451" fill="#51ADE5" transform="matrix(1.00061 0 0 1 -84.2157 -169.123)"/><g><path d="M126.236 325.727 153.916 325.727 153.916 321.509 126.236 321.509 126.236 325.727" fill="#7F248D" transform="matrix(1.00061 0 0 1 -84.2157 -169.123)"/></g><path d="M232.335 189.589 240.334 195.809 231.887 206.632 225.033 201.301 232.335 189.589" fill="#FBC108" transform="matrix(1.00061 0 0 1 -84.2157 -169.123)"/><path d="M185.397 237.468 192.47 242.971C191.055 250.247 188.174 256.997 184.143 262.9L172.576 253.903 185.397 237.468" fill="#E91348" transform="matrix(1.00061 0 0 1 -84.2157 -169.123)"/><path d="M120.76 213.612 99.8989 197.39C104.647 191.945 110.472 187.477 117.041 184.315L134.781 198.108 120.76 213.612" fill="#51ADE5" transform="matrix(1.00061 0 0 1 -84.2157 -169.123)"/><path d="M148.767 235.388 161.587 218.953 172.446 227.399 161.358 245.181 148.767 235.388" fill="#40B93C" transform="matrix(1.00061 0 0 1 -84.2157 -169.123)"/><path d="M209.924 219.582 218.454 226.213 210.007 237.042 202.617 231.295 209.924 219.582" fill="#51ADE5" transform="matrix(1.00061 0 0 1 -84.2157 -169.123)"/><path d="M127.266 245.077 106.733 229.11 120.76 213.612 138.354 227.295 127.266 245.077" fill="#F1471D" transform="matrix(1.00061 0 0 1 -84.2157 -169.123)"/><path d="M161.358 245.181 172.576 253.903 159.751 270.338 150.27 262.963 161.358 245.181" fill="#7F248D" transform="matrix(1.00061 0 0 1 -84.2157 -169.123)"/><path d="M148.767 235.388 135.941 251.823 127.266 245.077 138.354 227.295 148.767 235.388" fill="#51ADE5" transform="matrix(1.00061 0 0 1 -84.2157 -169.123)"/><path d="M172.576 253.903 184.143 262.9C182.76 264.929 181.241 266.858 179.598 268.673 175.936 272.715 172.717 275.684 169.966 278.28L159.751 270.338 172.576 253.903" fill="#FBC108" transform="matrix(1.00061 0 0 1 -84.2157 -169.123)"/><g><path d="M249.43 220.061 242.123 231.778 232.683 224.435 241.129 213.612 249.43 220.061" fill="#F1471D" transform="matrix(1.00061 0 0 1 -84.2157 -169.123)"/></g><path d="M134.781 198.108 117.041 184.315C123.86 181.038 131.479 179.166 139.525 179.083 141.21 179.067 142.869 179.135 144.518 179.275L148.803 182.609 134.781 198.108" fill="#FBC108" transform="matrix(1.00061 0 0 1 -84.2157 -169.123)"/><path d="M134.781 198.108 148.803 182.609 160.531 191.731 149.443 209.513 134.781 198.108" fill="#E91348" transform="matrix(1.00061 0 0 1 -84.2157 -169.123)"/><path d="M182.786 203.22 191.913 210.319 180.825 228.101 169.966 219.655 182.786 203.22" fill="#7F248D" transform="matrix(1.00061 0 0 1 -84.2157 -169.123)"/><path d="M204.109 236.173C204.281 237.884 204.369 239.611 204.369 241.364 204.369 244.89 204.026 248.338 203.381 251.677L196.308 246.174 204.109 236.173" fill="#FBC108" transform="matrix(1.00061 0 0 1 -84.2157 -169.123)"/><path d="M157.483 205.342 168.572 187.56 182.448 198.347 169.622 214.782 157.483 205.342" fill="#40B93C" transform="matrix(1.00061 0 0 1 -84.2157 -169.123)"/><path d="M208.884 179.764C210.938 182.51 212.743 185.469 214.246 188.6L206.83 184.024 208.884 179.764" fill="#40B93C" transform="matrix(1.00061 0 0 1 -84.2157 -169.123)"/><g><path d="M178.375 180.487 182.458 173.939C187.935 176.826 192.86 180.633 197.036 185.157L192.251 191.284 178.375 180.487" fill="#F1471D" transform="matrix(1.00061 0 0 1 -84.2157 -169.123)"/></g><path d="M147.737 178.022C149.921 178.209 152.074 178.531 154.181 178.979L152.028 181.355 147.737 178.022" fill="#E91348" transform="matrix(1.00061 0 0 1 -84.2157 -169.123)"/><path d="M194.524 198.711 199.304 192.584C201.894 195.393 204.198 198.482 206.153 201.79L203.647 205.805 194.524 198.711" fill="#51ADE5" transform="matrix(1.00061 0 0 1 -84.2157 -169.123)"/><path d="M159.751 177.574 161.904 175.192C166.72 176.217 171.307 177.897 175.562 180.144L171.479 186.692 159.751 177.574" fill="#51ADE5" transform="matrix(1.00061 0 0 1 -84.2157 -169.123)"/><path d="M124.744 303.904 121.483 303.904C121.483 299.094 121.061 295.422 120.224 292.41L128.093 298.527 124.744 303.904" fill="#51ADE5" transform="matrix(1.00061 0 0 1 -84.2157 -169.123)"/><path d="M135.005 303.904 133.564 303.904 134.105 303.202Z" fill="#FBC108" transform="matrix(1.00061 0 0 1 -84.2157 -169.123)"/><path d="M134.105 303.202 133.564 303.904 124.744 303.904 128.093 298.527 134.105 303.202" fill="#E91348" transform="matrix(1.00061 0 0 1 -84.2157 -169.123)"/><path d="M134.105 303.202 128.093 298.527 139.181 280.745 146.931 286.773 134.105 303.202" fill="#51ADE5" transform="matrix(1.00061 0 0 1 -84.2157 -169.123)"/><path d="M146.931 286.773 159.153 296.275C158.836 298.469 158.669 300.976 158.669 303.899L158.669 303.904 135.005 303.904 134.105 303.202 146.931 286.773" fill="#40B93C" transform="matrix(1.00061 0 0 1 -84.2157 -169.123)"/><path d="M139.181 280.745 128.093 298.527 120.224 292.41C118.887 287.589 116.495 284.453 113.12 281.067L123.116 268.257 139.181 280.745" fill="#F1471D" transform="matrix(1.00061 0 0 1 -84.2157 -169.123)"/><g><path d="M89.1019 248.598C88.2749 245.935 87.6508 243.184 87.2452 240.36L92.7113 244.609 89.1019 248.598" fill="#51ADE5" transform="matrix(1.00061 0 0 1 -84.2157 -169.123)"/></g><path d="M116.178 262.859 107.919 276.106C105.792 274.093 103.43 271.799 100.83 268.97 95.5354 263.207 91.4787 256.275 89.1019 248.598L92.7113 244.609 116.178 262.859" fill="#FBC108" transform="matrix(1.00061 0 0 1 -84.2157 -169.123)"/><path d="M116.178 262.859 123.116 268.257 113.12 281.067C111.591 279.528 109.853 277.931 107.919 276.106L116.178 262.859" fill="#51ADE5" transform="matrix(1.00061 0 0 1 -84.2157 -169.123)"/><g><path d="M92.7113 244.609 87.2452 240.36C86.8811 237.843 86.6939 235.273 86.6939 232.657 86.6939 226.718 87.6612 221.002 89.4399 215.661L106.733 229.11 92.7113 244.609" fill="#FBC108" transform="matrix(1.00061 0 0 1 -84.2157 -169.123)"/></g><path d="M159.751 270.338 169.966 278.28C164.12 283.782 160.411 287.574 159.153 296.275L146.931 286.773 159.751 270.338" fill="#7F248D" transform="matrix(1.00061 0 0 1 -84.2157 -169.123)"/><path d="M150.27 262.963 139.181 280.745 123.116 268.257 135.941 251.823 150.27 262.963" fill="#40B93C" transform="matrix(1.00061 0 0 1 -84.2157 -169.123)"/><path d="M106.733 229.11 127.266 245.077 116.178 262.859 92.7113 244.609 106.733 229.11" fill="#7F248D" transform="matrix(1.00061 0 0 1 -84.2157 -169.123)"/><path d="M228.959 249.883 215.916 254.085 213.908 247.927 226.505 242.341 228.959 249.883" fill="#E91348" transform="matrix(1.00061 0 0 1 -84.2157 -169.123)"/><path d="M135.941 251.823 123.116 268.257 116.178 262.859 127.266 245.077 135.941 251.823" fill="#E91348" transform="matrix(1.00061 0 0 1 -84.2157 -169.123)"/><path d="M-78.1592-15.4103C-78.1592-8.14462-73.5356-4.40517-66.4883-4.40517L-10.5682-4.40517C-3.74465-4.40517 1.10259-8.14462 1.10259-15.4103 1.10259-22.6759-3.74465-26.4206-10.5682-26.4206L-66.4883-26.4206C-73.5356-26.4206-78.1592-22.6759-78.1592-15.4103Z" fill="#FFDE59" transform="matrix(1.00061 0 0 1 311.506 141.07)"/><path d="M63.0818-48.6544C57.6156-53.4393 51.7542-52.4251 47.115-47.1254L10.277-5.05008C5.7782 0.0832145 5.40374 6.19428 10.8699 10.9791 16.336 15.7639 22.3431 14.5885 26.8367 9.45524L63.6799-32.6201C68.3191-37.925 68.5479-43.8644 63.0818-48.6544Z" fill="#5CE1E6" transform="matrix(1.00061 0 0 1 122.361 139.783)"/><path d="M16.8301-8.23303C16.8301-12.1857 15.249-14.8538 11.364-14.8538 9.45524-14.8538 7.90537-13.9956 6.9172-12.7474L6.9172-14.5261 1.97634-14.5261 1.97634 0 6.9172 0 6.9172-7.24486C6.9172-9.2212 8.13421-10.8699 9.68408-10.8699 11.234-10.8699 11.8893-9.94933 11.8893-8.23303L11.8893 0 16.8301 0Z" fill="#004AAD" transform="matrix(1.00061 0 0 1 86.3131 135.873)"/><path d="M13.3403-7.24486C13.3403-5.33613 11.8581-3.62503 9.88172-3.62503 7.90537-3.62503 6.42312-5.33613 6.42312-7.24486 6.42312-9.15879 7.90537-10.8699 9.88172-10.8699 11.8581-10.8699 13.3403-9.15879 13.3403-7.24486ZM18.2812-14.4897 13.3403-14.4897 13.3403-12.7474C12.0557-14.3285 10.2094-14.8538 8.36825-14.8538 4.24914-14.8538 1.1546-11.2652 1.1546-7.24486 1.1546-3.22976 4.24914 0.327657 8.36825 0.327657 10.2094 0.327657 12.3521-0.265246 13.3403-1.7475L13.3403 0 18.2812 0Z" fill="#004AAD" transform="matrix(1.00061 0 0 1 104.632 135.873)"/><path d="M9.38763-10.9999C11.0987-10.9999 12.1857-10.1106 12.2533-8.69591L17.1578-8.69591C16.9289-12.0557 13.9332-14.8538 9.2212-14.8538 4.37916-14.8538 1.1546-11.3952 1.1546-7.24486 1.1546-3.09454 4.18153 0.327657 9.2212 0.327657 13.6368 0.327657 16.5649-2.17398 17.059-5.40374L12.2533-5.40374C12.0869-4.08271 10.9011-3.4274 9.38763-3.4274 7.08363-3.4274 6.42312-5.53376 6.42312-7.21365 6.42312-8.86234 7.14604-10.9999 9.38763-10.9999Z" fill="#004AAD" transform="matrix(1.00061 0 0 1 124.896 135.873)"/><path d="M16.8301-8.23303C16.8301-12.1857 15.249-14.8538 11.364-14.8538 9.45524-14.8538 7.90537-13.9956 6.9172-12.7474L6.9172-24.7043 1.97634-24.7043 1.97634 0 6.9172 0 6.9172-7.24486C6.9172-9.2212 8.13421-10.8699 9.68408-10.8699 11.234-10.8699 11.8893-9.94933 11.8893-8.23303L11.8893 0 16.8301 0Z" fill="#004AAD" transform="matrix(1.00061 0 0 1 143.083 135.873)"/><path d="M16.8301-8.23303C16.8301-12.1857 15.249-14.8538 11.364-14.8538 9.45524-14.8538 7.90537-13.9956 6.9172-12.7474L6.9172-24.7043 1.97634-24.7043 1.97634 0 6.9172 0 6.9172-7.24486C6.9172-9.2212 8.13421-10.8699 9.68408-10.8699 11.234-10.8699 11.8893-9.94933 11.8893-8.23303L11.8893 0 16.8301 0Z" fill="#004AAD" transform="matrix(1.00061 0 0 1 161.402 135.873)"/><path d="M1.7111-19.4982C1.7111-17.9171 2.99572-16.6013 4.6132-16.6013 6.19428-16.6013 7.5101-17.9171 7.5101-19.4982 7.5101-21.1105 6.19428-22.3951 4.6132-22.3951 2.99572-22.3951 1.7111-21.1105 1.7111-19.4982ZM7.08363 0 7.08363-14.5261 2.14277-14.5261 2.14277 0Z" fill="#004AAD" transform="matrix(1.00061 0 0 1 179.721 135.873)"/><path d="M6.9172 0 6.9172-24.7043 1.97634-24.7043 1.97634 0Z" fill="#004AAD" transform="matrix(1.00061 0 0 1 188.947 135.873)"/><path d="M7.73894-24.7043C5.10729-24.7043 3.06333-23.0556 3.06333-19.467L3.06333-14.5261 0.988172-14.5261 0.988172-10.7035 3.06333-10.7035 3.06333 0 8.00419 0 8.00419-10.7035 11.3952-10.7035 11.3952-14.5261 8.00419-14.5261 8.00419-18.8741C8.00419-20.2887 8.26944-20.8504 9.28881-20.8504L11.3952-20.8504 11.3952-24.7043Z" fill="#004AAD" transform="matrix(1.00061 0 0 1 197.843 135.873)"/><path d="M6.45432-8.99236C6.45432-8.99236 6.62075-11.6916 9.71529-11.6916 12.7162-11.6916 12.945-8.99236 12.945-8.99236ZM17.6883-7.57772C17.6883-12.2221 14.032-14.8538 9.61647-14.8538 4.74322-14.8538 1.1546-11.7904 1.1546-7.24486 1.1546-2.63686 4.6132 0.327657 9.61647 0.327657 13.4703 0.327657 16.5649-1.58107 17.423-5.40374L12.3834-5.40374C12.3521-4.34796 11.2652-3.19336 9.51765-3.19336 7.57772-3.19336 6.39191-4.97206 6.39191-6.65196L17.6519-6.65196C17.6519-6.94841 17.6883-7.28126 17.6883-7.57772Z" fill="#004AAD" transform="matrix(1.00061 0 0 1 209.803 135.873)"/><path d="M1.7111-2.53804C1.7111-0.956966 2.99572 0.327657 4.6132 0.327657 6.19428 0.327657 7.5101-0.956966 7.5101-2.53804 7.5101-4.15032 6.19428-5.43494 4.6132-5.43494 2.99572-5.43494 1.7111-4.15032 1.7111-2.53804Z" fill="#004AAD" transform="matrix(1.00061 0 0 1 228.65 135.873)"/><path d="M26.4466-14.5261 21.0117-14.5261 18.0159-5.03968 14.7862-14.5261 10.9687-14.5261 7.77535-5.03968 4.81084-14.5261-0.592902-14.5261 4.41557 0 10.0794 0 12.8774-9.05997 15.7119 0 21.3445 0Z" fill="#004AAD" transform="matrix(1.00061 0 0 1 237.875 135.873)"/><path d="M1.7111-19.4982C1.7111-17.9171 2.99572-16.6013 4.6132-16.6013 6.19428-16.6013 7.5101-17.9171 7.5101-19.4982 7.5101-21.1105 6.19428-22.3951 4.6132-22.3951 2.99572-22.3951 1.7111-21.1105 1.7111-19.4982ZM7.08363 0 7.08363-14.5261 2.14277-14.5261 2.14277 0Z" fill="#004AAD" transform="matrix(1.00061 0 0 1 263.74 135.873)"/><path d="M6.45432-8.99236C6.45432-8.99236 6.62075-11.6916 9.71529-11.6916 12.7162-11.6916 12.945-8.99236 12.945-8.99236ZM17.6883-7.57772C17.6883-12.2221 14.032-14.8538 9.61647-14.8538 4.74322-14.8538 1.1546-11.7904 1.1546-7.24486 1.1546-2.63686 4.6132 0.327657 9.61647 0.327657 13.4703 0.327657 16.5649-1.58107 17.423-5.40374L12.3834-5.40374C12.3521-4.34796 11.2652-3.19336 9.51765-3.19336 7.57772-3.19336 6.39191-4.97206 6.39191-6.65196L17.6519-6.65196C17.6519-6.94841 17.6883-7.28126 17.6883-7.57772Z" fill="#004AAD" transform="matrix(1.00061 0 0 1 272.965 135.873)"/><path d="M16.8301-8.23303C16.8301-12.1857 15.249-14.8538 11.364-14.8538 9.45524-14.8538 7.90537-13.9956 6.9172-12.7474L6.9172-14.5261 1.97634-14.5261 1.97634 0 6.9172 0 6.9172-7.24486C6.9172-9.2212 8.13421-10.8699 9.68408-10.8699 11.234-10.8699 11.8893-9.94933 11.8893-8.23303L11.8893 0 16.8301 0Z" fill="#004AAD" transform="matrix(1.00061 0 0 1 291.811 135.873)"/></g></svg>