<svg width="292" height="284" xmlns="http://www.w3.org/2000/svg" xmlns:xlink="http://www.w3.org/1999/xlink" xml:space="preserve" overflow="hidden"><defs><clipPath id="clip0"><rect x="0" y="0" width="292" height="284"/></clipPath></defs><g clip-path="url(#clip0)"><path d="M0 0 604.796 0 604.796 604.796 0 604.796Z" fill="#FFFFFF" transform="matrix(1.00002 0 0 1 -27.2041 -164.795)"/><path d="M210.367 541.425 277.078 541.425 277.078 534.086 210.367 534.086 210.367 541.425" fill="#F1471D" transform="matrix(1.00061 0 0 1 -146.242 -296.726)"/><path d="M214.983 554.085 272.464 554.085 272.464 546.746 214.983 546.746 214.983 554.085" fill="#51ADE5" transform="matrix(1.00061 0 0 1 -146.242 -296.726)"/><path d="M219.643 566.744 267.804 566.744 267.804 559.405 219.643 559.405 219.643 566.744" fill="#7F248D" transform="matrix(1.00061 0 0 1 -146.242 -296.727)"/><path d="M404.248 329.873 418.166 340.695 403.469 359.527 391.543 350.251 404.248 329.873" fill="#FBC108" transform="matrix(1.00061 0 0 1 -146.24 -296.724)"/><path d="M322.579 413.179 334.886 422.754C332.424 435.414 327.411 447.159 320.397 457.429L300.271 441.775 322.579 413.179" fill="#E91348" transform="matrix(1.00061 0 0 1 -146.241 -296.725)"/><path d="M210.115 371.671 173.818 343.446C182.079 333.972 192.214 326.198 203.644 320.696L234.51 344.695 210.115 371.671" fill="#51ADE5" transform="matrix(1.00061 0 0 1 -146.242 -296.724)"/><path d="M258.845 409.56 281.151 380.964 300.045 395.66 280.753 426.599 258.845 409.56" fill="#40B93C" transform="matrix(1.00061 0 0 1 -146.242 -296.725)"/><path d="M365.255 382.059 380.096 393.596 365.399 412.438 352.541 402.439 365.255 382.059" fill="#51ADE5" transform="matrix(1.00061 0 0 1 -146.241 -296.725)"/><path d="M221.435 426.419 185.709 398.637 210.115 371.671 240.727 395.479 221.435 426.419" fill="#F1471D" transform="matrix(1.00061 0 0 1 -146.242 -296.724)"/><path d="M280.753 426.599 300.271 441.775 277.957 470.371 261.46 457.539 280.753 426.599" fill="#7F248D" transform="matrix(1.00061 0 0 1 -146.242 -296.725)"/><path d="M258.845 409.56 236.529 438.156 221.435 426.419 240.727 395.479 258.845 409.56" fill="#51ADE5" transform="matrix(1.00061 0 0 1 -146.242 -296.725)"/><path d="M300.271 441.775 320.397 457.429C317.991 460.96 315.348 464.316 312.489 467.474 306.118 474.507 300.517 479.673 295.73 484.19L277.957 470.371 300.271 441.775" fill="#FBC108" transform="matrix(1.00061 0 0 1 -146.241 -296.725)"/><path d="M433.992 382.892 421.279 403.279 404.854 390.503 419.549 371.671 433.992 382.892" fill="#F1471D" transform="matrix(1.00061 0 0 1 -146.24 -296.725)"/><path d="M234.51 344.695 203.644 320.696C215.509 314.995 228.765 311.738 242.765 311.593 245.697 311.565 248.583 311.684 251.452 311.927L258.908 317.728 234.51 344.695" fill="#FBC108" transform="matrix(1.00061 0 0 1 -146.242 -296.724)"/><path d="M234.51 344.695 258.908 317.728 279.314 333.6 260.021 364.539 234.51 344.695" fill="#E91348" transform="matrix(1.00061 0 0 1 -146.242 -296.724)"/><path d="M318.036 353.59 333.917 365.942 314.624 396.881 295.73 382.186 318.036 353.59" fill="#7F248D" transform="matrix(1.00061 0 0 1 -146.241 -296.724)"/><path d="M355.137 410.926C355.436 413.903 355.589 416.908 355.589 419.958 355.589 426.093 354.992 432.092 353.87 437.902L341.564 428.327 355.137 410.926" fill="#FBC108" transform="matrix(1.00061 0 0 1 -146.241 -296.725)"/><path d="M274.01 357.282 293.305 326.343 317.448 345.111 295.132 373.707 274.01 357.282" fill="#40B93C" transform="matrix(1.00061 0 0 1 -146.241 -296.724)"/><path d="M363.445 312.778C367.019 317.556 370.159 322.704 372.775 328.152L359.871 320.19 363.445 312.778" fill="#40B93C" transform="matrix(1.00061 0 0 1 -146.241 -296.724)"/><path d="M310.361 314.036 317.465 302.643C326.995 307.666 335.564 314.29 342.83 322.161L334.505 332.822 310.361 314.036" fill="#F1471D" transform="matrix(1.00061 0 0 1 -146.241 -296.724)"/><path d="M257.053 309.747C260.853 310.072 264.599 310.633 268.265 311.412L264.519 315.546 257.053 309.747" fill="#E91348" transform="matrix(1.00061 0 0 1 -146.242 -296.724)"/><path d="M338.46 345.745 346.776 335.084C351.283 339.971 355.292 345.346 358.693 351.102L354.333 358.088 338.46 345.745" fill="#51ADE5" transform="matrix(1.00061 0 0 1 -146.241 -296.724)"/><path d="M277.957 308.968 281.703 304.823C290.082 306.606 298.063 309.53 305.467 313.439L298.363 324.832 277.957 308.968" fill="#51ADE5" transform="matrix(1.00061 0 0 1 -146.241 -296.724)"/><path d="M217.047 528.774 211.373 528.774C211.373 520.405 210.639 514.016 209.182 508.775L222.874 519.418 217.047 528.774" fill="#51ADE5" transform="matrix(1.00061 0 0 1 -146.242 -296.726)"/><path d="M234.9 528.774 232.393 528.774 233.334 527.552Z" fill="#FBC108" transform="matrix(1.00061 0 0 1 -146.242 -296.726)"/><path d="M233.334 527.552 232.393 528.774 217.047 528.774 222.874 519.418 233.334 527.552" fill="#E91348" transform="matrix(1.00061 0 0 1 -146.242 -296.726)"/><path d="M233.334 527.552 222.874 519.418 242.166 488.479 255.651 498.967 233.334 527.552" fill="#51ADE5" transform="matrix(1.00061 0 0 1 -146.242 -296.726)"/><path d="M255.651 498.967 276.916 515.5C276.365 519.317 276.074 523.679 276.074 528.765L276.074 528.774 234.9 528.774 233.334 527.552 255.651 498.967" fill="#40B93C" transform="matrix(1.00061 0 0 1 -146.242 -296.726)"/><path d="M242.166 488.479 222.874 519.418 209.182 508.775C206.856 500.387 202.694 494.93 196.822 489.039L214.214 466.75 242.166 488.479" fill="#F1471D" transform="matrix(1.00061 0 0 1 -146.242 -296.725)"/><path d="M155.032 432.545C153.593 427.911 152.507 423.125 151.801 418.211L161.312 425.604 155.032 432.545" fill="#51ADE5" transform="matrix(1.00061 0 0 1 -146.243 -296.725)"/><path d="M202.142 457.358 187.772 480.407C184.071 476.905 179.962 472.913 175.438 467.991 166.226 457.964 159.167 445.902 155.032 432.545L161.312 425.604 202.142 457.358" fill="#FBC108" transform="matrix(1.00061 0 0 1 -146.242 -296.725)"/><path d="M202.142 457.358 214.214 466.75 196.822 489.039C194.161 486.361 191.137 483.582 187.772 480.407L202.142 457.358" fill="#51ADE5" transform="matrix(1.00061 0 0 1 -146.242 -296.725)"/><path d="M161.312 425.604 151.801 418.211C151.168 413.832 150.842 409.36 150.842 404.809 150.842 394.475 152.525 384.53 155.62 375.237L185.709 398.637 161.312 425.604" fill="#FBC108" transform="matrix(1.00061 0 0 1 -146.242 -296.725)"/><path d="M277.957 470.371 295.73 484.19C285.558 493.763 279.105 500.361 276.916 515.5L255.651 498.967 277.957 470.371" fill="#7F248D" transform="matrix(1.00061 0 0 1 -146.242 -296.726)"/><path d="M261.46 457.539 242.166 488.479 214.214 466.75 236.529 438.156 261.46 457.539" fill="#40B93C" transform="matrix(1.00061 0 0 1 -146.242 -296.725)"/><path d="M185.709 398.637 221.435 426.419 202.142 457.358 161.312 425.604 185.709 398.637" fill="#7F248D" transform="matrix(1.00061 0 0 1 -146.242 -296.725)"/><path d="M398.374 434.781 375.68 442.092 372.186 431.377 394.104 421.658 398.374 434.781" fill="#E91348" transform="matrix(1.00061 0 0 1 -146.241 -296.725)"/><path d="M236.529 438.156 214.214 466.75 202.142 457.358 221.435 426.419 236.529 438.156" fill="#E91348" transform="matrix(1.00061 0 0 1 -146.242 -296.725)"/></g></svg>